<svg width="103" height="21" viewBox="0 0 103 21" fill="none" xmlns="http://www.w3.org/2000/svg">
<path d="M41.6467 6.02V13H40.2467V8.46L38.3767 13H37.3167L35.4367 8.46V13H34.0367V6.02H35.6267L37.8467 11.21L40.0667 6.02H41.6467ZM45.4908 13.09C44.9575 13.09 44.4775 12.9733 44.0508 12.74C43.6242 12.5 43.2875 12.1633 43.0408 11.73C42.8008 11.2967 42.6808 10.7967 42.6808 10.23C42.6808 9.66333 42.8042 9.16333 43.0508 8.73C43.3042 8.29667 43.6475 7.96333 44.0808 7.73C44.5142 7.49 44.9975 7.37 45.5308 7.37C46.0642 7.37 46.5475 7.49 46.9808 7.73C47.4142 7.96333 47.7542 8.29667 48.0008 8.73C48.2542 9.16333 48.3808 9.66333 48.3808 10.23C48.3808 10.7967 48.2508 11.2967 47.9908 11.73C47.7375 12.1633 47.3908 12.5 46.9508 12.74C46.5175 12.9733 46.0308 13.09 45.4908 13.09ZM45.4908 11.87C45.7442 11.87 45.9808 11.81 46.2008 11.69C46.4275 11.5633 46.6075 11.3767 46.7408 11.13C46.8742 10.8833 46.9408 10.5833 46.9408 10.23C46.9408 9.70333 46.8008 9.3 46.5208 9.02C46.2475 8.73333 45.9108 8.59 45.5108 8.59C45.1108 8.59 44.7742 8.73333 44.5008 9.02C44.2342 9.3 44.1008 9.70333 44.1008 10.23C44.1008 10.7567 44.2308 11.1633 44.4908 11.45C44.7575 11.73 45.0908 11.87 45.4908 11.87ZM51.7178 11.71L53.1178 7.46H54.6078L52.5578 13H50.8578L48.8178 7.46H50.3178L51.7178 11.71ZM60.5441 10.11C60.5441 10.31 60.5308 10.49 60.5041 10.65H56.4541C56.4874 11.05 56.6274 11.3633 56.8741 11.59C57.1208 11.8167 57.4241 11.93 57.7841 11.93C58.3041 11.93 58.6741 11.7067 58.8941 11.26H60.4041C60.2441 11.7933 59.9374 12.2333 59.4841 12.58C59.0308 12.92 58.4741 13.09 57.8141 13.09C57.2808 13.09 56.8008 12.9733 56.3741 12.74C55.9541 12.5 55.6241 12.1633 55.3841 11.73C55.1508 11.2967 55.0341 10.7967 55.0341 10.23C55.0341 9.65667 55.1508 9.15333 55.3841 8.72C55.6174 8.28667 55.9441 7.95333 56.3641 7.72C56.7841 7.48667 57.2674 7.37 57.8141 7.37C58.3408 7.37 58.8108 7.48333 59.2241 7.71C59.6441 7.93667 59.9674 8.26 60.1941 8.68C60.4274 9.09333 60.5441 9.57 60.5441 10.11ZM59.0941 9.71C59.0874 9.35 58.9574 9.06333 58.7041 8.85C58.4508 8.63 58.1408 8.52 57.7741 8.52C57.4274 8.52 57.1341 8.62667 56.8941 8.84C56.6608 9.04667 56.5174 9.33667 56.4641 9.71H59.0941ZM65.5788 8.61V11.29C65.5788 11.4767 65.6221 11.6133 65.7088 11.7C65.8021 11.78 65.9555 11.82 66.1688 11.82H66.8188V13H65.9388C64.7588 13 64.1688 12.4267 64.1688 11.28V8.61H63.5088V7.46H64.1688V6.09H65.5788V7.46H66.8188V8.61H65.5788ZM70.2857 13.09C69.7524 13.09 69.2724 12.9733 68.8457 12.74C68.4191 12.5 68.0824 12.1633 67.8357 11.73C67.5957 11.2967 67.4757 10.7967 67.4757 10.23C67.4757 9.66333 67.5991 9.16333 67.8457 8.73C68.0991 8.29667 68.4424 7.96333 68.8757 7.73C69.3091 7.49 69.7924 7.37 70.3257 7.37C70.8591 7.37 71.3424 7.49 71.7757 7.73C72.2091 7.96333 72.5491 8.29667 72.7957 8.73C73.0491 9.16333 73.1757 9.66333 73.1757 10.23C73.1757 10.7967 73.0457 11.2967 72.7857 11.73C72.5324 12.1633 72.1857 12.5 71.7457 12.74C71.3124 12.9733 70.8257 13.09 70.2857 13.09ZM70.2857 11.87C70.5391 11.87 70.7757 11.81 70.9957 11.69C71.2224 11.5633 71.4024 11.3767 71.5357 11.13C71.6691 10.8833 71.7357 10.5833 71.7357 10.23C71.7357 9.70333 71.5957 9.3 71.3157 9.02C71.0424 8.73333 70.7057 8.59 70.3057 8.59C69.9057 8.59 69.5691 8.73333 69.2957 9.02C69.0291 9.3 68.8957 9.70333 68.8957 10.23C68.8957 10.7567 69.0257 11.1633 69.2857 11.45C69.5524 11.73 69.8857 11.87 70.2857 11.87ZM78.2155 8.61V11.29C78.2155 11.4767 78.2588 11.6133 78.3455 11.7C78.4388 11.78 78.5922 11.82 78.8055 11.82H79.4555V13H78.5755C77.3955 13 76.8055 12.4267 76.8055 11.28V8.61H76.1455V7.46H76.8055V6.09H78.2155V7.46H79.4555V8.61H78.2155ZM81.8625 8.32C82.0425 8.02667 82.2758 7.79667 82.5625 7.63C82.8558 7.46333 83.1891 7.38 83.5625 7.38V8.85H83.1925C82.7525 8.85 82.4191 8.95333 82.1925 9.16C81.9725 9.36667 81.8625 9.72667 81.8625 10.24V13H80.4625V7.46H81.8625V8.32ZM84.1454 10.21C84.1454 9.65 84.2554 9.15333 84.4754 8.72C84.7021 8.28667 85.0054 7.95333 85.3854 7.72C85.7721 7.48667 86.2021 7.37 86.6754 7.37C87.0888 7.37 87.4488 7.45333 87.7554 7.62C88.0688 7.78667 88.3188 7.99667 88.5054 8.25V7.46H89.9154V13H88.5054V12.19C88.3254 12.45 88.0754 12.6667 87.7554 12.84C87.4421 13.0067 87.0788 13.09 86.6654 13.09C86.1988 13.09 85.7721 12.97 85.3854 12.73C85.0054 12.49 84.7021 12.1533 84.4754 11.72C84.2554 11.28 84.1454 10.7767 84.1454 10.21ZM88.5054 10.23C88.5054 9.89 88.4388 9.6 88.3054 9.36C88.1721 9.11333 87.9921 8.92667 87.7654 8.8C87.5388 8.66667 87.2954 8.6 87.0354 8.6C86.7754 8.6 86.5354 8.66333 86.3154 8.79C86.0954 8.91667 85.9154 9.10333 85.7754 9.35C85.6421 9.59 85.5754 9.87667 85.5754 10.21C85.5754 10.5433 85.6421 10.8367 85.7754 11.09C85.9154 11.3367 86.0954 11.5267 86.3154 11.66C86.5421 11.7933 86.7821 11.86 87.0354 11.86C87.2954 11.86 87.5388 11.7967 87.7654 11.67C87.9921 11.5367 88.1721 11.35 88.3054 11.11C88.4388 10.8633 88.5054 10.57 88.5054 10.23ZM93.4028 13.09C92.9494 13.09 92.5428 13.01 92.1828 12.85C91.8228 12.6833 91.5361 12.46 91.3228 12.18C91.1161 11.9 91.0028 11.59 90.9828 11.25H92.3928C92.4194 11.4633 92.5228 11.64 92.7028 11.78C92.8894 11.92 93.1194 11.99 93.3928 11.99C93.6594 11.99 93.8661 11.9367 94.0128 11.83C94.1661 11.7233 94.2428 11.5867 94.2428 11.42C94.2428 11.24 94.1494 11.1067 93.9628 11.02C93.7828 10.9267 93.4928 10.8267 93.0928 10.72C92.6794 10.62 92.3394 10.5167 92.0728 10.41C91.8128 10.3033 91.5861 10.14 91.3928 9.92C91.2061 9.7 91.1128 9.40333 91.1128 9.03C91.1128 8.72333 91.1994 8.44333 91.3728 8.19C91.5528 7.93667 91.8061 7.73667 92.1328 7.59C92.4661 7.44333 92.8561 7.37 93.3028 7.37C93.9628 7.37 94.4894 7.53667 94.8828 7.87C95.2761 8.19667 95.4928 8.64 95.5328 9.2H94.1928C94.1728 8.98 94.0794 8.80667 93.9128 8.68C93.7528 8.54667 93.5361 8.48 93.2628 8.48C93.0094 8.48 92.8128 8.52667 92.6728 8.62C92.5394 8.71333 92.4728 8.84333 92.4728 9.01C92.4728 9.19667 92.5661 9.34 92.7528 9.44C92.9394 9.53333 93.2294 9.63 93.6228 9.73C94.0228 9.83 94.3528 9.93333 94.6128 10.04C94.8728 10.1467 95.0961 10.3133 95.2828 10.54C95.4761 10.76 95.5761 11.0533 95.5828 11.42C95.5828 11.74 95.4928 12.0267 95.3128 12.28C95.1394 12.5333 94.8861 12.7333 94.5528 12.88C94.2261 13.02 93.8428 13.09 93.4028 13.09ZM99.852 7.38C100.272 7.38 100.645 7.47333 100.972 7.66C101.299 7.84 101.552 8.11 101.732 8.47C101.919 8.82333 102.012 9.25 102.012 9.75V13H100.612V9.94C100.612 9.5 100.502 9.16333 100.282 8.93C100.062 8.69 99.762 8.57 99.382 8.57C98.9953 8.57 98.6887 8.69 98.462 8.93C98.242 9.16333 98.132 9.5 98.132 9.94V13H96.732V5.6H98.132V8.15C98.312 7.91 98.552 7.72333 98.852 7.59C99.152 7.45 99.4853 7.38 99.852 7.38Z" fill="#959595"/>
<line x1="25.5" y1="4" x2="25.5" y2="17" stroke="#8D8D8D"/>
<path fill-rule="evenodd" clip-rule="evenodd" d="M13.125 3.9375H17.0625V5.25H15.75V17.0625L14.4375 18.375H5.25L3.9375 17.0625V5.25H2.625V3.9375H6.5625V2.625C6.5625 2.2769 6.70078 1.94306 6.94692 1.69692C7.19306 1.45078 7.5269 1.3125 7.875 1.3125H11.8125C12.1606 1.3125 12.4944 1.45078 12.7406 1.69692C12.9867 1.94306 13.125 2.2769 13.125 2.625V3.9375ZM11.8125 2.625H7.875V3.9375H11.8125V2.625ZM5.25 17.0625H14.4375V5.25H5.25V17.0625ZM7.875 6.5625H6.5625V15.75H7.875V6.5625ZM9.1875 6.5625H10.5V15.75H9.1875V6.5625ZM11.8125 6.5625H13.125V15.75H11.8125V6.5625Z" fill="#8F8F8F"/>
</svg>
