<svg width="19" height="19" viewBox="0 0 19 19" fill="none" xmlns="http://www.w3.org/2000/svg">
<g clip-path="url(#clip0_22_1410)">
<path d="M18.6532 9.49051C18.4466 -0.241651 5.50459 -3.87184 0.519461 5.25113C0.742711 5.41501 1.04196 5.62816 1.26521 5.78313C0.897345 6.55399 0.63703 7.37169 0.491555 8.21335C0.39554 8.75433 0.347063 9.30267 0.34668 9.8521C0.34668 14.899 4.45009 19 9.5029 19C14.5593 19 18.6532 14.9055 18.6532 9.8521V9.49051ZM2.60352 11.1203C2.48299 12.1101 2.56018 12.4165 2.56018 12.5364L2.33752 12.6142C2.2544 12.4527 2.04718 11.878 1.95099 11.1043C1.70934 8.1611 3.71977 5.5106 6.78412 5.00947C9.58899 4.5986 12.2769 6.34244 12.9015 8.77919L12.6789 8.85697C12.6106 8.78869 12.499 8.59097 12.0691 8.1611C8.67996 4.77138 3.35759 6.32344 2.60293 11.1233L2.60352 11.1203ZM11.315 12.7686C11.0858 13.1002 10.7794 13.3711 10.4223 13.558C10.0651 13.7449 9.6679 13.8422 9.2648 13.8415C8.93645 13.8424 8.61117 13.7783 8.30765 13.6531C8.00413 13.5278 7.72836 13.3438 7.49618 13.1116C7.264 12.8795 7.07999 12.6037 6.95474 12.3002C6.82948 11.9966 6.76544 11.6714 6.7663 11.343C6.7686 10.7132 7.00836 10.1074 7.43771 9.64653C7.86706 9.1857 8.45442 8.90375 9.08252 8.85697C9.88943 8.82313 10.6435 9.25835 10.9968 9.96372C11.1857 10.3417 11.2526 10.769 11.1884 11.1866C11.1241 11.6042 10.9319 11.9916 10.6381 12.2954C10.8691 12.4593 11.0924 12.6142 11.315 12.7686ZM16.5228 12.8648C15.2023 15.8579 12.4811 17.4295 9.58068 17.3862C4.01071 17.1107 2.39096 10.6845 6.11377 8.36832L6.27765 8.52922C6.2159 8.61651 5.99265 8.78988 5.65005 9.46676C5.24809 10.2891 5.11805 11.115 5.1703 11.6286C5.46065 16.1179 11.7544 17.0371 13.9156 12.5899C16.6712 6.50751 9.35743 0.31885 2.86952 5.04747L2.72405 4.90201C4.43168 2.22479 7.77093 1.03076 10.9534 1.82876C15.8204 3.05604 18.4371 8.12785 16.5228 12.8654V12.8648Z" fill="white"/>
</g>
<defs>
<clipPath id="clip0_22_1410">
<rect width="19" height="19" fill="white"/>
</clipPath>
</defs>
</svg>
